<?xml version="1.0" encoding="UTF-8"?>
<!DOCTYPE svg PUBLIC "-//W3C//DTD SVG 1.1//EN" "http://www.w3.org/Graphics/SVG/1.1/DTD/svg11.dtd">
<svg xmlns="http://www.w3.org/2000/svg" version="1.1" width="512px" height="512px" style="shape-rendering:geometricPrecision; text-rendering:geometricPrecision; image-rendering:optimizeQuality; fill-rule:evenodd; clip-rule:evenodd" xmlns:xlink="http://www.w3.org/1999/xlink">
<g><path style="opacity:1" fill="#fbfbfb" d="M -0.5,-0.5 C 16.1667,-0.5 32.8333,-0.5 49.5,-0.5C 23.1667,6.5 6.5,23.1667 -0.5,49.5C -0.5,32.8333 -0.5,16.1667 -0.5,-0.5 Z"/></g>
<g><path style="opacity:1" fill="#000000" d="M 49.5,-0.5 C 185.833,-0.5 322.167,-0.5 458.5,-0.5C 486.481,5.14525 504.147,21.8119 511.5,49.5C 511.5,185.833 511.5,322.167 511.5,458.5C 505.622,487.379 488.288,505.045 459.5,511.5C 322.833,511.5 186.167,511.5 49.5,511.5C 21.8119,504.147 5.14525,486.481 -0.5,458.5C -0.5,322.167 -0.5,185.833 -0.5,49.5C 6.5,23.1667 23.1667,6.5 49.5,-0.5 Z"/></g>
<g><path style="opacity:1" fill="#fbfbfb" d="M 458.5,-0.5 C 476.167,-0.5 493.833,-0.5 511.5,-0.5C 511.5,16.1667 511.5,32.8333 511.5,49.5C 504.147,21.8119 486.481,5.14525 458.5,-0.5 Z"/></g>
<g><path style="opacity:1" fill="#feacc5" d="M 471.5,21.5 C 471.973,22.9063 472.973,23.573 474.5,23.5C 476.167,24.8333 477.833,26.1667 479.5,27.5C 480.167,28.8333 481.167,29.8333 482.5,30.5C 488.384,36.2594 492.217,43.2594 494,51.5C 494.667,187.167 494.667,322.833 494,458.5C 492.644,462.947 491.144,467.281 489.5,471.5C 488.094,471.973 487.427,472.973 487.5,474.5C 480.015,484.75 470.015,491.25 457.5,494C 322.167,494.667 186.833,494.667 51.5,494C 32.1707,489.137 20.6707,476.97 17,457.5C 16.3333,322.167 16.3333,186.833 17,51.5C 21.8333,33.3333 33.3333,21.8333 51.5,17C 187.167,16.3333 322.833,16.3333 458.5,17C 462.947,18.3563 467.281,19.8563 471.5,21.5 Z"/></g>
<g><path style="opacity:1" fill="#8b3812" d="M 471.5,21.5 C 473.027,21.427 474.027,22.0937 474.5,23.5C 472.973,23.573 471.973,22.9063 471.5,21.5 Z"/></g>
<g><path style="opacity:1" fill="#893712" d="M 479.5,27.5 C 481.5,27.5 482.5,28.5 482.5,30.5C 481.167,29.8333 480.167,28.8333 479.5,27.5 Z"/></g>
<g><path style="opacity:1" fill="#050200" d="M 62.5,42.5 C 80.3938,39.8605 93.2271,46.5271 101,62.5C 103.5,90.6667 90.6667,103.5 62.5,101C 43.4873,90.9664 38.154,75.9664 46.5,56C 49.3273,53.3388 51.9939,50.5054 54.5,47.5C 57.6329,46.2836 60.2995,44.6169 62.5,42.5 Z"/></g>
<g><path style="opacity:1" fill="#050200" d="M 467.5,63.5 C 468.373,67.7685 468.706,72.1018 468.5,76.5C 463.058,96.2402 450.058,104.407 429.5,101C 413.362,93.2257 406.862,80.3923 410,62.5C 411.863,59.4269 413.696,56.4269 415.5,53.5C 417.5,52.1667 419.167,50.5 420.5,48.5C 428.97,42.5558 438.303,41.0558 448.5,44C 457.699,47.6994 464.033,54.1994 467.5,63.5 Z"/></g>
<g><path style="opacity:1" fill="#923f19" d="M 420.5,48.5 C 419.167,50.5 417.5,52.1667 415.5,53.5C 416.167,50.8333 417.833,49.1667 420.5,48.5 Z"/></g>
<g><path style="opacity:1" fill="#3aaf48" d="M 77.5,60.5 C 77.9731,61.9063 78.9731,62.573 80.5,62.5C 84.4676,66.812 85.4676,71.812 83.5,77.5C 82.0937,77.9731 81.427,78.9731 81.5,80.5C 81.5,81.1667 81.1667,81.5 80.5,81.5C 78.9731,81.427 77.9731,82.0937 77.5,83.5C 71.812,85.4676 66.812,84.4676 62.5,80.5C 62.573,78.9731 61.9063,77.9731 60.5,77.5C 58.1667,63.8333 63.8333,58.1667 77.5,60.5 Z"/></g>
<g><path style="opacity:1" fill="#39ae48" d="M 444.5,60.5 C 444.973,61.9063 445.973,62.573 447.5,62.5C 451.469,66.8538 452.469,71.8538 450.5,77.5C 449.094,77.9731 448.427,78.9731 448.5,80.5C 444.307,84.2754 439.307,85.442 433.5,84C 431.973,82.9681 430.64,81.8014 429.5,80.5C 429.573,78.9731 428.906,77.9731 427.5,77.5C 424.849,63.6431 430.516,57.9764 444.5,60.5 Z"/></g>
<g><path style="opacity:1" fill="#846003" d="M 77.5,60.5 C 79.0269,60.427 80.0269,61.0937 80.5,62.5C 78.9731,62.573 77.9731,61.9063 77.5,60.5 Z"/></g>
<g><path style="opacity:1" fill="#7a5904" d="M 444.5,60.5 C 446.027,60.427 447.027,61.0937 447.5,62.5C 445.973,62.573 444.973,61.9063 444.5,60.5 Z"/></g>
<g><path style="opacity:1" fill="#ba4c19" d="M 467.5,63.5 C 468.117,63.6107 468.617,63.944 469,64.5C 469.812,68.6888 469.645,72.6888 468.5,76.5C 468.706,72.1018 468.373,67.7685 467.5,63.5 Z"/></g>
<g><path style="opacity:1" fill="#060200" d="M 201.5,263.5 C 219.833,245.833 237.833,227.833 255.5,209.5C 258.681,206.948 262.347,205.448 266.5,205C 284.566,204.96 302.566,204.294 320.5,203C 321.701,202.097 322.535,200.931 323,199.5C 323.667,187.833 323.667,176.167 323,164.5C 319.5,161 316,157.5 312.5,154C 274.5,153.333 236.5,153.333 198.5,154C 195,157.5 191.5,161 188,164.5C 187.667,174.167 187.333,183.833 187,193.5C 185.142,198.048 182.642,202.215 179.5,206C 176.066,208.435 172.4,210.435 168.5,212C 152.167,212.667 135.833,212.667 119.5,212C 111.21,208.211 105.543,202.045 102.5,193.5C 101.334,171.841 101.167,150.174 102,128.5C 103.679,124.463 105.846,120.797 108.5,117.5C 120.5,106.167 132.167,94.5 143.5,82.5C 146.176,80.1606 149.176,78.3273 152.5,77C 223.5,76.3333 294.5,76.3333 365.5,77C 368.618,78.0587 371.618,79.3921 374.5,81C 387,93.5 399.5,106 412,118.5C 413.667,121.167 415.333,123.833 417,126.5C 417.667,154.833 417.667,183.167 417,211.5C 415.941,214.618 414.608,217.618 413,220.5C 400.5,234.333 387.333,247.5 373.5,260C 370.519,261.487 367.519,262.821 364.5,264C 351.833,264.333 339.167,264.667 326.5,265C 323,268.5 319.5,272 316,275.5C 315.833,288.18 315.333,300.846 314.5,313.5C 310.959,324.21 303.626,330.377 292.5,332C 261.828,332.833 231.161,332.667 200.5,331.5C 198.833,330.5 197.5,329.167 196.5,327.5C 195.334,309.509 195.167,291.509 196,273.5C 197.592,269.979 199.425,266.646 201.5,263.5 Z"/></g>
<g><path style="opacity:1" fill="#7f5c03" d="M 60.5,77.5 C 61.9063,77.9731 62.573,78.9731 62.5,80.5C 61.0937,80.0269 60.427,79.0269 60.5,77.5 Z"/></g>
<g><path style="opacity:1" fill="#8e6802" d="M 83.5,77.5 C 83.573,79.0269 82.9063,80.0269 81.5,80.5C 81.427,78.9731 82.0937,77.9731 83.5,77.5 Z"/></g>
<g><path style="opacity:1" fill="#906902" d="M 427.5,77.5 C 428.906,77.9731 429.573,78.9731 429.5,80.5C 428.094,80.0269 427.427,79.0269 427.5,77.5 Z"/></g>
<g><path style="opacity:1" fill="#7f5d04" d="M 450.5,77.5 C 450.573,79.0269 449.906,80.0269 448.5,80.5C 448.427,78.9731 449.094,77.9731 450.5,77.5 Z"/></g>
<g><path style="opacity:1" fill="#7b5a04" d="M 80.5,81.5 C 80.0269,82.9063 79.0269,83.573 77.5,83.5C 77.9731,82.0937 78.9731,81.427 80.5,81.5 Z"/></g>
<g><path style="opacity:1" fill="#b5e31c" d="M 340.5,93.5 C 350.5,104.167 360.833,114.5 371.5,124.5C 371.992,126.819 372.992,128.819 374.5,130.5C 375.205,136.369 375.871,142.369 376.5,148.5C 375.678,168.79 375.178,189.123 375,209.5C 374.275,211.949 373.275,214.283 372,216.5C 361.964,226.368 352.131,236.368 342.5,246.5C 329.926,244.139 319.259,247.473 310.5,256.5C 300.169,253.812 290.835,255.812 282.5,262.5C 280.5,263.833 278.833,265.5 277.5,267.5C 277.262,269.404 276.262,270.738 274.5,271.5C 273.778,271.918 273.278,272.584 273,273.5C 272.5,284.828 272.333,296.162 272.5,307.5C 272.784,309.415 272.451,311.081 271.5,312.5C 252.401,314.468 233.068,315.135 213.5,314.5C 213.5,302.167 213.5,289.833 213.5,277.5C 213.709,276.078 214.209,274.745 215,273.5C 232.195,255.971 249.695,238.804 267.5,222C 284.5,221.667 301.5,221.333 318.5,221C 329.251,218.891 336.417,212.724 340,202.5C 340.667,189.167 340.667,175.833 340,162.5C 334.916,151.082 326.749,142.582 315.5,137C 275.5,136.333 235.5,136.333 195.5,137C 191,138.747 187,141.247 183.5,144.5C 176.646,144.176 169.979,144.509 163.5,145.5C 146.566,154.92 140.232,169.254 144.5,188.5C 143.659,190.812 142.659,193.145 141.5,195.5C 135.491,195.666 129.491,195.499 123.5,195C 121.622,193.457 120.122,191.624 119,189.5C 118.333,170.5 118.333,151.5 119,132.5C 130.466,118.7 142.966,105.867 156.5,94C 217.832,93.5 279.166,93.3333 340.5,93.5 Z"/></g>
<g><path style="opacity:1" fill="#ffbf00" d="M 340.5,93.5 C 341.167,93.5 341.833,93.5 342.5,93.5C 351.798,103.298 361.298,112.965 371,122.5C 371.464,123.094 371.631,123.761 371.5,124.5C 360.833,114.5 350.5,104.167 340.5,93.5 Z"/></g>
<g><path style="opacity:1" fill="#29b04b" d="M 342.5,93.5 C 349.947,93.0714 357.281,93.5714 364.5,95C 376.696,106.862 388.53,119.029 400,131.5C 400.83,157.67 400.663,183.67 399.5,209.5C 387.167,221.167 375.167,233.167 363.5,245.5C 356.687,246.491 349.687,246.825 342.5,246.5C 352.131,236.368 361.964,226.368 372,216.5C 373.275,214.283 374.275,211.949 375,209.5C 375.178,189.123 375.678,168.79 376.5,148.5C 375.871,142.369 375.205,136.369 374.5,130.5C 374.539,127.911 373.539,125.911 371.5,124.5C 371.631,123.761 371.464,123.094 371,122.5C 361.298,112.965 351.798,103.298 342.5,93.5 Z"/></g>
<g><path style="opacity:1" fill="#903e19" d="M 143.5,82.5 C 132.167,94.5 120.5,106.167 108.5,117.5C 118.91,105.586 129.91,94.0865 141.5,83C 142.094,82.5357 142.761,82.369 143.5,82.5 Z"/></g>
<g><path style="opacity:1" fill="#ffc100" d="M 371.5,124.5 C 373.539,125.911 374.539,127.911 374.5,130.5C 372.992,128.819 371.992,126.819 371.5,124.5 Z"/></g>
<g><path style="opacity:1" fill="#f8b600" d="M 163.5,145.5 C 169.979,144.509 176.646,144.176 183.5,144.5C 183.167,145.5 182.5,146.167 181.5,146.5C 175.69,145.51 169.69,145.177 163.5,145.5 Z"/></g>
<g><path style="opacity:1" fill="#2faf4a" d="M 163.5,145.5 C 169.69,145.177 175.69,145.51 181.5,146.5C 179.833,148.833 177.833,150.833 175.5,152.5C 174.094,152.973 173.427,153.973 173.5,155.5C 173.205,157.423 172.372,159.09 171,160.5C 170.809,170.577 170.309,180.577 169.5,190.5C 167.833,191.5 166.5,192.833 165.5,194.5C 158.352,195.492 151.019,195.825 143.5,195.5C 144.219,193.236 144.552,190.903 144.5,188.5C 140.232,169.254 146.566,154.92 163.5,145.5 Z"/></g>
<g><path style="opacity:1" fill="#ab7d00" d="M 175.5,152.5 C 175.573,154.027 174.906,155.027 173.5,155.5C 173.427,153.973 174.094,152.973 175.5,152.5 Z"/></g>
<g><path style="opacity:1" fill="#8d6703" d="M 169.5,190.5 C 169.167,192.833 167.833,194.167 165.5,194.5C 166.5,192.833 167.833,191.5 169.5,190.5 Z"/></g>
<g><path style="opacity:1" fill="#ffc000" d="M 144.5,188.5 C 144.552,190.903 144.219,193.236 143.5,195.5C 142.833,195.5 142.167,195.5 141.5,195.5C 142.659,193.145 143.659,190.812 144.5,188.5 Z"/></g>
<g><path style="opacity:1" fill="#873a17" d="M 255.5,209.5 C 237.833,227.833 219.833,245.833 201.5,263.5C 218.246,245.252 235.579,227.418 253.5,210C 254.094,209.536 254.761,209.369 255.5,209.5 Z"/></g>
<g><path style="opacity:1" fill="#906900" d="M 399.5,209.5 C 388.756,221.747 377.423,233.58 365.5,245C 364.906,245.464 364.239,245.631 363.5,245.5C 375.167,233.167 387.167,221.167 399.5,209.5 Z"/></g>
<g><path style="opacity:1" fill="#30af49" d="M 310.5,256.5 C 308.5,259.167 306.167,261.5 303.5,263.5C 302.094,263.973 301.427,264.973 301.5,266.5C 301.205,268.423 300.372,270.09 299,271.5C 298.667,283.833 298.333,296.167 298,308.5C 297.351,311.647 295.518,313.647 292.5,314.5C 285.087,315.128 278.087,314.461 271.5,312.5C 272.451,311.081 272.784,309.415 272.5,307.5C 273.226,295.642 273.893,283.642 274.5,271.5C 276.262,270.738 277.262,269.404 277.5,267.5C 280.167,266.833 281.833,265.167 282.5,262.5C 290.835,255.812 300.169,253.812 310.5,256.5 Z"/></g>
<g><path style="opacity:1" fill="#a37701" d="M 303.5,263.5 C 303.573,265.027 302.906,266.027 301.5,266.5C 301.427,264.973 302.094,263.973 303.5,263.5 Z"/></g>
<g><path style="opacity:1" fill="#ffbd00" d="M 282.5,262.5 C 281.833,265.167 280.167,266.833 277.5,267.5C 278.833,265.5 280.5,263.833 282.5,262.5 Z"/></g>
<g><path style="opacity:1" fill="#ffbb00" d="M 274.5,271.5 C 273.893,283.642 273.226,295.642 272.5,307.5C 272.333,296.162 272.5,284.828 273,273.5C 273.278,272.584 273.778,271.918 274.5,271.5 Z"/></g>
<g><path style="opacity:1" fill="#b68a00" d="M 213.5,277.5 C 213.5,289.833 213.5,302.167 213.5,314.5C 233.068,315.135 252.401,314.468 271.5,312.5C 278.087,314.461 285.087,315.128 292.5,314.5C 266.005,315.498 239.339,315.831 212.5,315.5C 212.171,302.656 212.505,289.989 213.5,277.5 Z"/></g>
<g><path style="opacity:1" fill="#080301" d="M 215.5,357.5 C 242.169,357.333 268.835,357.5 295.5,358C 299.295,359.731 302.962,361.731 306.5,364C 310.208,367.91 313.042,372.41 315,377.5C 315.667,392.833 315.667,408.167 315,423.5C 311.833,433.333 305.333,439.833 295.5,443C 268.833,443.667 242.167,443.667 215.5,443C 205.641,439.807 199.141,433.307 196,423.5C 195.333,408.167 195.333,392.833 196,377.5C 198.291,372.578 200.791,367.911 203.5,363.5C 207.807,362.013 211.807,360.013 215.5,357.5 Z"/></g>
<g><path style="opacity:1" fill="#896800" d="M 219.5,375.5 C 243.5,374.167 267.5,374.167 291.5,375.5C 284.382,374.895 277.548,375.562 271,377.5C 254.071,375.522 236.905,374.856 219.5,375.5 Z"/></g>
<g><path style="opacity:1" fill="#30b04a" d="M 219.5,375.5 C 236.905,374.856 254.071,375.522 271,377.5C 277.548,375.562 284.382,374.895 291.5,375.5C 294.669,375.839 296.836,377.505 298,380.5C 298.667,393.5 298.667,406.5 298,419.5C 297.236,423.099 295.07,425.099 291.5,425.5C 284.382,426.105 277.548,425.438 271,423.5C 253.738,425.478 236.238,426.145 218.5,425.5C 215.482,424.647 213.649,422.647 213,419.5C 212.333,406.5 212.333,393.5 213,380.5C 214.159,377.507 216.325,375.84 219.5,375.5 Z"/></g>
<g><path style="opacity:1" fill="#050200" d="M 48.5,420.5 C 50.5,419.167 52.1667,417.5 53.5,415.5C 64.6348,407.995 76.3015,407.495 88.5,414C 99.2053,421.91 103.372,432.41 101,445.5C 94.7856,464.033 81.9523,471.366 62.5,467.5C 46.2761,460.057 39.7761,447.39 43,429.5C 44.8625,426.427 46.6959,423.427 48.5,420.5 Z"/></g>
<g><path style="opacity:1" fill="#050200" d="M 468.5,434.5 C 468.693,438.566 468.36,442.566 467.5,446.5C 461.123,464.364 448.456,471.364 429.5,467.5C 413.27,460.044 406.77,447.377 410,429.5C 417.164,414.307 428.997,407.807 445.5,410C 448.993,410.942 452.326,412.275 455.5,414C 458.279,416.402 460.945,418.902 463.5,421.5C 465.772,425.656 467.438,429.989 468.5,434.5 Z"/></g>
<g><path style="opacity:1" fill="#933f19" d="M 53.5,415.5 C 52.1667,417.5 50.5,419.167 48.5,420.5C 49.1667,417.833 50.8333,416.167 53.5,415.5 Z"/></g>
<g><path style="opacity:1" fill="#a98000" d="M 291.5,425.5 C 267.167,426.833 242.833,426.833 218.5,425.5C 236.238,426.145 253.738,425.478 271,423.5C 277.548,425.438 284.382,426.105 291.5,425.5 Z"/></g>
<g><path style="opacity:1" fill="#39ae48" d="M 77.5,427.5 C 77.9731,428.906 78.9731,429.573 80.5,429.5C 81.8846,430.574 83.0513,431.907 84,433.5C 84.7554,437.255 84.5887,440.922 83.5,444.5C 82.0937,444.973 81.427,445.973 81.5,447.5C 75.8446,452.384 69.8446,452.717 63.5,448.5C 63.2624,446.596 62.2624,445.262 60.5,444.5C 58.2208,430.779 63.8875,425.112 77.5,427.5 Z"/></g>
<g><path style="opacity:1" fill="#3cae48" d="M 444.5,427.5 C 444.973,428.906 445.973,429.573 447.5,429.5C 451.895,434.394 452.562,439.727 449.5,445.5C 447.833,446.5 446.5,447.833 445.5,449.5C 439.727,452.562 434.394,451.895 429.5,447.5C 429.573,445.973 428.906,444.973 427.5,444.5C 424.833,430.5 430.5,424.833 444.5,427.5 Z"/></g>
<g><path style="opacity:1" fill="#926a02" d="M 77.5,427.5 C 79.0269,427.427 80.0269,428.094 80.5,429.5C 78.9731,429.573 77.9731,428.906 77.5,427.5 Z"/></g>
<g><path style="opacity:1" fill="#8b6503" d="M 444.5,427.5 C 446.027,427.427 447.027,428.094 447.5,429.5C 445.973,429.573 444.973,428.906 444.5,427.5 Z"/></g>
<g><path style="opacity:1" fill="#b24918" d="M 468.5,434.5 C 469.643,437.976 469.81,441.642 469,445.5C 468.617,446.056 468.117,446.389 467.5,446.5C 468.36,442.566 468.693,438.566 468.5,434.5 Z"/></g>
<g><path style="opacity:1" fill="#886304" d="M 60.5,444.5 C 62.2624,445.262 63.2624,446.596 63.5,448.5C 61.7376,447.738 60.7376,446.404 60.5,444.5 Z"/></g>
<g><path style="opacity:1" fill="#825f03" d="M 83.5,444.5 C 83.573,446.027 82.9063,447.027 81.5,447.5C 81.427,445.973 82.0937,444.973 83.5,444.5 Z"/></g>
<g><path style="opacity:1" fill="#866203" d="M 427.5,444.5 C 428.906,444.973 429.573,445.973 429.5,447.5C 428.094,447.027 427.427,446.027 427.5,444.5 Z"/></g>
<g><path style="opacity:1" fill="#9f7400" d="M 449.5,445.5 C 449.167,447.833 447.833,449.167 445.5,449.5C 446.5,447.833 447.833,446.5 449.5,445.5 Z"/></g>
<g><path style="opacity:1" fill="#fbfbfb" d="M -0.5,458.5 C 5.14525,486.481 21.8119,504.147 49.5,511.5C 32.8333,511.5 16.1667,511.5 -0.5,511.5C -0.5,493.833 -0.5,476.167 -0.5,458.5 Z"/></g>
<g><path style="opacity:1" fill="#fafafa" d="M 511.5,458.5 C 511.5,476.167 511.5,493.833 511.5,511.5C 494.167,511.5 476.833,511.5 459.5,511.5C 488.288,505.045 505.622,487.379 511.5,458.5 Z"/></g>
<g><path style="opacity:1" fill="#873611" d="M 489.5,471.5 C 489.573,473.027 488.906,474.027 487.5,474.5C 487.427,472.973 488.094,471.973 489.5,471.5 Z"/></g>
</svg>
